<svg width="798" height="209" viewBox="0 0 798 209" fill="none" xmlns="http://www.w3.org/2000/svg">
<path d="M67.842 153.447C103.18 181.894 131.482 171.35 141.215 162.523C140.383 76.6784 46.7251 92.2098 0 110.706C7.88969 113.1 32.5037 125 67.842 153.447Z" fill="#317A4F"/>
<path d="M75.3466 93.5302C83.3788 147.589 122.792 162.105 141.495 162.605C225.597 87.7811 114.327 23.025 48.1787 0C53.8879 8.65226 67.3144 39.4715 75.3466 93.5302Z" fill="#81BA49"/>
<path d="M212.608 169C228.448 169 236.896 161.992 236.896 150.952C236.896 140.488 229.408 136.072 218.752 135.304C227.104 134.536 233.44 129.64 233.44 120.904C233.44 110.344 225.472 104.104 210.112 104.104H179.968V169H212.608ZM194.944 131.08V116.968H208.576C212.608 116.968 218.464 117.736 218.464 123.592C218.464 129.736 213.664 131.08 208.48 131.08H194.944ZM194.944 156.04V141.448H211.264C216.16 141.448 221.344 142.216 221.344 148.552C221.344 154.888 216.064 156.04 211.264 156.04H194.944ZM261.457 169V102.184H246.769V169H261.457ZM297.289 170.152C312.937 170.152 323.593 161.512 323.593 146.056C323.593 130.504 312.937 121.96 297.289 121.96C281.737 121.96 271.177 130.504 271.177 146.056C271.177 161.512 281.737 170.152 297.289 170.152ZM297.289 158.248C290.665 158.248 286.345 153.544 286.345 146.152C286.345 138.76 290.665 133.864 297.289 133.864C304.009 133.864 308.425 138.76 308.425 146.152C308.425 153.544 304.009 158.248 297.289 158.248ZM357.3 170.344C368.148 170.344 372.756 166.984 375.348 164.008V151.24C370.356 156.424 365.268 158.536 359.028 158.536C350.772 158.536 345.876 155.08 345.876 146.44C345.876 137.32 351.156 134.056 358.836 134.056C365.748 134.056 370.644 136.84 375.348 141.832V128.68C372.564 125.704 368.052 122.056 356.82 122.056C339.924 122.056 330.708 131.176 330.708 146.056C330.708 160.552 339.636 170.344 357.3 170.344ZM400.863 169V155.08L407.199 149.32L419.583 169H436.767L417.663 140.488L435.327 123.4H418.527L400.863 140.584V102.184H386.175V169H400.863ZM490.427 169V117.448H511.835V104.104H453.947V117.448H475.355V169H490.427ZM526.207 169V149.32C526.207 140.488 531.775 136.36 537.631 136.36C542.431 136.36 545.695 139.144 547.807 142.888V127.624C546.367 124.84 543.679 122.056 537.919 122.056C532.351 122.056 526.975 126.568 525.055 136.744V123.4H511.519V169H526.207ZM600.498 158.056C598.098 158.056 597.81 155.368 597.81 154.216V139.432C597.81 125.512 585.618 122.056 575.826 122.056C565.362 122.056 558.93 125.896 556.434 129.64V142.12C560.082 137.224 566.61 133.768 574.674 133.768C579.858 133.768 583.026 135.784 583.026 139.048V139.912C565.17 143.656 553.458 146.92 553.458 158.92C553.458 166.888 558.93 169.96 566.226 169.96C575.73 169.96 581.97 164.68 583.89 158.92V160.456C583.89 164.872 586.674 169.96 595.986 169.96C600.882 169.96 603.858 168.232 605.01 167.368V155.944C603.954 157 602.034 158.056 600.498 158.056ZM573.042 159.592C569.586 159.592 568.434 157.864 568.434 155.368C568.434 150.856 575.346 149.032 583.026 147.496V148.744C583.026 154.696 578.994 159.592 573.042 159.592ZM636.113 170.344C646.961 170.344 651.569 166.984 654.161 164.008V151.24C649.169 156.424 644.081 158.536 637.841 158.536C629.585 158.536 624.689 155.08 624.689 146.44C624.689 137.32 629.969 134.056 637.649 134.056C644.561 134.056 649.457 136.84 654.161 141.832V128.68C651.377 125.704 646.865 122.056 635.633 122.056C618.737 122.056 609.521 131.176 609.521 146.056C609.521 160.552 618.449 170.344 636.113 170.344ZM688.222 170.152C697.534 170.152 704.446 168.04 707.518 165.256V152.872C704.062 156.52 697.63 158.728 690.142 158.728C682.462 158.728 677.854 156.136 677.374 149.896H709.246C709.246 149.128 709.342 147.976 709.342 146.728C709.342 131.176 701.182 122.056 686.686 122.056C671.23 122.056 662.398 130.792 662.398 146.152C662.398 162.664 672.286 170.152 688.222 170.152ZM677.662 141.832C677.662 136.744 681.118 133.096 687.166 133.096C692.734 133.096 695.71 136.648 695.71 141.832H677.662Z" fill="#174756"/>
</svg>
